<?xml version="1.0" encoding="UTF-8"?><svg xmlns="http://www.w3.org/2000/svg" xmlns:xlink="http://www.w3.org/1999/xlink" contentScriptType="text/ecmascript" width="375pt" zoomAndPan="magnify" contentStyleType="text/css" viewBox="0 0 375 374.999991" height="374.999991pt" preserveAspectRatio="xMidYMid meet" version="1.2"><defs><g/><clipPath xml:id="clip1" id="clip1"><path d="M 220 85 L 308 85 L 308 159 L 220 159 Z M 220 85 "/></clipPath><clipPath xml:id="clip2" id="clip2"><path d="M 292.601562 76.992188 L 307.28125 155.890625 L 228.386719 170.570312 L 213.703125 91.675781 Z M 292.601562 76.992188 "/></clipPath><clipPath xml:id="clip3" id="clip3"><path d="M 292.601562 76.992188 L 307.28125 155.890625 L 228.386719 170.570312 L 213.703125 91.675781 Z M 292.601562 76.992188 "/></clipPath><clipPath xml:id="clip4" id="clip4"><path d="M 17 66 L 212 66 L 212 155 L 17 155 Z M 17 66 "/></clipPath><clipPath xml:id="clip5" id="clip5"><path d="M 17.8125 149.617188 L 81.109375 19.441406 L 211.289062 82.738281 L 147.988281 212.914062 Z M 17.8125 149.617188 "/></clipPath><clipPath xml:id="clip6" id="clip6"><path d="M 17.8125 149.617188 L 81.109375 19.441406 L 211.289062 82.738281 L 147.988281 212.914062 Z M 17.8125 149.617188 "/></clipPath></defs><g xml:id="surface1" id="surface1"><g clip-rule="nonzero" clip-path="url(#clip1)"><g clip-rule="nonzero" clip-path="url(#clip2)"><g clip-rule="nonzero" clip-path="url(#clip3)"><path style=" stroke:none;fill-rule:nonzero;fill:rgb(14.898682%,14.898682%,14.898682%);fill-opacity:1;" d="M 305.636719 147.050781 C 303.195312 133.9375 290.925781 118.015625 273.261719 109.078125 L 271.4375 99.285156 C 270.121094 92.207031 264.082031 89.132812 257.976562 87.378906 L 249.800781 85.03125 L 253.089844 102.699219 L 245.621094 113.578125 L 238.15625 124.460938 L 220.488281 127.746094 L 225.621094 134.53125 C 229.453125 139.597656 234.492188 144.125 241.570312 142.808594 L 251.367188 140.984375 C 266.058594 154.253906 285.328125 159.976562 298.441406 157.535156 L 307.28125 155.890625 Z M 284.382812 134.839844 C 285.011719 138.21875 282.78125 141.46875 279.402344 142.097656 C 276.027344 142.722656 272.777344 140.496094 272.148438 137.117188 C 271.519531 133.738281 273.75 130.492188 277.128906 129.863281 C 280.503906 129.234375 283.753906 131.464844 284.382812 134.839844 Z M 240.289062 101.917969 L 236.660156 99.425781 C 231.421875 95.832031 220.234375 96.15625 220.234375 96.15625 C 220.234375 96.15625 223.378906 106.316406 229.195312 110.308594 L 232.820312 112.796875 Z M 240.289062 101.917969 "/></g></g></g><g style="fill:rgb(14.898682%,14.898682%,14.898682%);fill-opacity:1;"><g transform="translate(3.712996, 291.018878)"><path style="stroke:none;" d="M 16.75 -124.78125 L 18.359375 -124.78125 C 19.304688 -124.78125 20.132812 -124.421875 20.84375 -123.703125 C 21.5625 -122.992188 21.921875 -122.164062 21.921875 -121.21875 L 21.921875 -3.5625 C 21.921875 -2.613281 21.5625 -1.78125 20.84375 -1.0625 C 20.132812 -0.351562 19.304688 0 18.359375 0 L 16.75 0 C 15.6875 0 14.828125 -0.351562 14.171875 -1.0625 C 13.515625 -1.78125 13.1875 -2.613281 13.1875 -3.5625 L 13.1875 -121.21875 C 13.1875 -122.164062 13.515625 -122.992188 14.171875 -123.703125 C 14.828125 -124.421875 15.6875 -124.78125 16.75 -124.78125 Z M 16.75 -124.78125 "/></g></g><g style="fill:rgb(14.898682%,14.898682%,14.898682%);fill-opacity:1;"><g transform="translate(51.842036, 291.018878)"><path style="stroke:none;" d="M 15.15625 -96.53125 C 15.15625 -104.195312 18.300781 -110.878906 24.59375 -116.578125 C 30.894531 -122.285156 39.484375 -125.140625 50.359375 -125.140625 C 61.234375 -125.140625 70.382812 -122.253906 77.8125 -116.484375 C 85.238281 -110.722656 89.191406 -102.140625 89.671875 -90.734375 C 89.671875 -89.785156 89.3125 -88.925781 88.59375 -88.15625 C 87.882812 -87.382812 87.054688 -87 86.109375 -87 L 84.3125 -87 C 83.488281 -87 82.71875 -87.320312 82 -87.96875 C 81.289062 -88.625 80.875 -89.425781 80.75 -90.375 C 80.394531 -99.40625 77.363281 -105.972656 71.65625 -110.078125 C 65.957031 -114.179688 59.125 -116.234375 51.15625 -116.234375 C 42.601562 -116.234375 35.945312 -114.269531 31.1875 -110.34375 C 26.4375 -106.425781 24.0625 -101.582031 24.0625 -95.8125 C 24.0625 -90.050781 25.726562 -85.445312 29.0625 -82 C 33.695312 -77.363281 42.3125 -72.609375 54.90625 -67.734375 C 69.882812 -61.796875 79.867188 -55.859375 84.859375 -49.921875 C 88.660156 -45.398438 90.5625 -38.921875 90.5625 -30.484375 C 90.5625 -22.046875 87.144531 -14.828125 80.3125 -8.828125 C 73.476562 -2.828125 63.757812 0.171875 51.15625 0.171875 C 41.769531 0.171875 32.914062 -2.378906 24.59375 -7.484375 C 20.195312 -10.222656 16.601562 -14.054688 13.8125 -18.984375 C 11.019531 -23.921875 9.503906 -29.597656 9.265625 -36.015625 C 9.265625 -38.503906 10.453125 -39.75 12.828125 -39.75 L 14.4375 -39.75 C 16.570312 -39.75 17.757812 -38.617188 18 -36.359375 C 18.238281 -31.128906 19.546875 -26.582031 21.921875 -22.71875 C 24.296875 -18.863281 27.269531 -15.984375 30.84375 -14.078125 C 37.726562 -10.398438 45.300781 -8.5625 53.5625 -8.5625 C 61.820312 -8.5625 68.597656 -10.726562 73.890625 -15.0625 C 79.179688 -19.394531 81.828125 -24.832031 81.828125 -31.375 C 81.828125 -38.03125 79.6875 -43.140625 75.40625 -46.703125 C 71.957031 -49.554688 68.210938 -51.992188 64.171875 -54.015625 C 58.941406 -56.515625 50.742188 -60.019531 39.578125 -64.53125 C 31.015625 -68.332031 24.800781 -72.695312 20.9375 -77.625 C 17.082031 -82.5625 15.15625 -88.863281 15.15625 -96.53125 Z M 15.15625 -96.53125 "/></g></g><g style="fill:rgb(14.898682%,14.898682%,14.898682%);fill-opacity:1;"><g transform="translate(163.607708, 291.018878)"><path style="stroke:none;" d="M 17.296875 -124.78125 L 41.71875 -124.78125 C 70.476562 -124.78125 84.859375 -113.492188 84.859375 -90.921875 C 84.859375 -82.117188 82.0625 -74.300781 76.46875 -67.46875 C 70.882812 -60.632812 62.09375 -57.21875 50.09375 -57.21875 L 48.125 -57.21875 L 86.640625 -6.59375 C 88.066406 -4.457031 88.78125 -3.148438 88.78125 -2.671875 C 88.78125 -0.890625 87.945312 0 86.28125 0 L 82.71875 0 C 81.164062 0 80.035156 -0.472656 79.328125 -1.421875 L 38.15625 -55.625 C 36.84375 -57.519531 36.1875 -59.0625 36.1875 -60.25 C 36.1875 -64.050781 38.265625 -65.953125 42.421875 -65.953125 L 50.265625 -65.953125 C 55.265625 -65.953125 59.546875 -66.785156 63.109375 -68.453125 C 66.671875 -70.117188 69.285156 -72.257812 70.953125 -74.875 C 74.273438 -79.976562 75.9375 -85.265625 75.9375 -90.734375 C 75.9375 -107.492188 64.46875 -115.875 41.53125 -115.875 L 18.71875 -115.875 L 18.71875 -3.5625 C 18.71875 -2.613281 18.390625 -1.78125 17.734375 -1.0625 C 17.078125 -0.351562 16.21875 0 15.15625 0 L 13.375 0 C 12.300781 0 11.4375 -0.351562 10.78125 -1.0625 C 10.125 -1.78125 9.796875 -2.613281 9.796875 -3.5625 L 9.796875 -116.40625 C 9.796875 -119.613281 10.300781 -121.8125 11.3125 -123 C 12.320312 -124.1875 14.316406 -124.78125 17.296875 -124.78125 Z M 17.296875 -124.78125 "/></g></g><g style="fill:rgb(14.898682%,14.898682%,14.898682%);fill-opacity:1;"><g transform="translate(263.252118, 291.018878)"><path style="stroke:none;" d="M 31.1875 -120.59375 C 35.46875 -122.4375 39.210938 -123.59375 42.421875 -124.0625 C 45.628906 -124.539062 48.925781 -124.78125 52.3125 -124.78125 C 55.707031 -124.78125 59.066406 -124.515625 62.390625 -123.984375 C 65.722656 -123.453125 69.5 -122.234375 73.71875 -120.328125 C 77.9375 -118.429688 81.585938 -115.96875 84.671875 -112.9375 C 87.765625 -109.90625 90.378906 -105.625 92.515625 -100.09375 C 94.660156 -94.570312 95.734375 -88.1875 95.734375 -80.9375 L 95.734375 -44.75 C 95.734375 -37.257812 94.628906 -30.660156 92.421875 -24.953125 C 90.222656 -19.253906 87.550781 -14.859375 84.40625 -11.765625 C 81.257812 -8.671875 77.609375 -6.175781 73.453125 -4.28125 C 66.796875 -1.3125 59.78125 0.171875 52.40625 0.171875 C 44.6875 0.171875 38.117188 -1.132812 32.703125 -3.75 C 27.296875 -6.363281 23.046875 -9.210938 19.953125 -12.296875 C 16.867188 -15.390625 14.253906 -19.757812 12.109375 -25.40625 C 9.972656 -31.050781 8.90625 -37.5 8.90625 -44.75 L 8.90625 -80.9375 C 8.90625 -88.414062 10.003906 -94.945312 12.203125 -100.53125 C 14.410156 -106.125 17.054688 -110.40625 20.140625 -113.375 C 23.234375 -116.34375 26.914062 -118.75 31.1875 -120.59375 Z M 69.078125 -112.5625 C 65.691406 -114.050781 62.71875 -115.003906 60.15625 -115.421875 C 57.601562 -115.835938 54.988281 -116.046875 52.3125 -116.046875 C 49.644531 -116.046875 47.003906 -115.835938 44.390625 -115.421875 C 41.773438 -115.003906 38.773438 -114.050781 35.390625 -112.5625 C 32.003906 -111.082031 29.0625 -109.125 26.5625 -106.6875 C 24.0625 -104.25 21.945312 -100.742188 20.21875 -96.171875 C 18.5 -91.597656 17.640625 -86.28125 17.640625 -80.21875 L 17.640625 -45.28125 C 17.640625 -39.21875 18.5 -33.867188 20.21875 -29.234375 C 21.945312 -24.597656 24.085938 -21.003906 26.640625 -18.453125 C 29.203125 -15.898438 32.144531 -13.847656 35.46875 -12.296875 C 38.800781 -10.753906 41.800781 -9.742188 44.46875 -9.265625 C 47.144531 -8.796875 49.789062 -8.5625 52.40625 -8.5625 C 55.019531 -8.5625 57.664062 -8.796875 60.34375 -9.265625 C 63.019531 -9.742188 66.019531 -10.753906 69.34375 -12.296875 C 72.675781 -13.847656 75.585938 -15.898438 78.078125 -18.453125 C 80.578125 -21.003906 82.6875 -24.597656 84.40625 -29.234375 C 86.132812 -33.867188 87 -39.21875 87 -45.28125 L 87 -80.21875 C 87 -86.28125 86.101562 -91.597656 84.3125 -96.171875 C 82.53125 -100.742188 80.390625 -104.25 77.890625 -106.6875 C 75.398438 -109.125 72.460938 -111.082031 69.078125 -112.5625 Z M 69.078125 -112.5625 "/></g></g><g clip-rule="nonzero" clip-path="url(#clip4)"><g clip-rule="nonzero" clip-path="url(#clip5)"><g clip-rule="nonzero" clip-path="url(#clip6)"><path style=" stroke:none;fill-rule:nonzero;fill:rgb(14.898682%,14.898682%,14.898682%);fill-opacity:1;" d="M 211.289062 82.738281 L 206.222656 93.152344 C 135.714844 58.867188 62.515625 84.167969 28.226562 154.679688 L 17.8125 149.617188 C 54.492188 74.1875 135.859375 46.0625 211.289062 82.738281 Z M 211.289062 82.738281 "/></g></g></g><path style=" stroke:none;fill-rule:nonzero;fill:rgb(14.898682%,14.898682%,14.898682%);fill-opacity:1;" d="M 23.0625 146.714844 C 22.667969 146.714844 22.277344 146.753906 21.890625 146.832031 C 21.503906 146.910156 21.128906 147.023438 20.765625 147.171875 C 20.402344 147.324219 20.058594 147.507812 19.730469 147.726562 C 19.402344 147.945312 19.097656 148.195312 18.820312 148.472656 C 18.542969 148.753906 18.292969 149.054688 18.074219 149.382812 C 17.855469 149.710938 17.671875 150.054688 17.519531 150.421875 C 17.367188 150.785156 17.253906 151.160156 17.179688 151.546875 C 17.101562 151.933594 17.0625 152.324219 17.0625 152.714844 C 17.0625 153.109375 17.101562 153.5 17.179688 153.886719 C 17.253906 154.273438 17.367188 154.648438 17.519531 155.011719 C 17.671875 155.375 17.855469 155.722656 18.074219 156.050781 C 18.292969 156.378906 18.542969 156.679688 18.820312 156.960938 C 19.097656 157.238281 19.402344 157.488281 19.730469 157.707031 C 20.058594 157.925781 20.402344 158.109375 20.765625 158.261719 C 21.128906 158.410156 21.503906 158.523438 21.890625 158.601562 C 22.277344 158.679688 22.667969 158.714844 23.0625 158.714844 C 23.457031 158.714844 23.847656 158.679688 24.234375 158.601562 C 24.621094 158.523438 24.996094 158.410156 25.359375 158.261719 C 25.722656 158.109375 26.070312 157.925781 26.394531 157.707031 C 26.722656 157.488281 27.027344 157.238281 27.304688 156.960938 C 27.585938 156.679688 27.832031 156.378906 28.050781 156.050781 C 28.269531 155.722656 28.457031 155.375 28.605469 155.011719 C 28.757812 154.648438 28.871094 154.273438 28.949219 153.886719 C 29.023438 153.5 29.0625 153.109375 29.0625 152.714844 C 29.0625 152.324219 29.023438 151.933594 28.949219 151.546875 C 28.871094 151.160156 28.757812 150.785156 28.605469 150.421875 C 28.457031 150.054688 28.269531 149.710938 28.050781 149.382812 C 27.832031 149.054688 27.585938 148.753906 27.304688 148.472656 C 27.027344 148.195312 26.722656 147.945312 26.394531 147.726562 C 26.070312 147.507812 25.722656 147.324219 25.359375 147.171875 C 24.996094 147.023438 24.621094 146.910156 24.234375 146.832031 C 23.847656 146.753906 23.457031 146.714844 23.0625 146.714844 Z M 23.0625 146.714844 "/><path style=" stroke:none;fill-rule:nonzero;fill:rgb(14.898682%,14.898682%,14.898682%);fill-opacity:1;" d="M 208.371094 81.589844 C 207.976562 81.589844 207.589844 81.628906 207.203125 81.707031 C 206.816406 81.785156 206.441406 81.898438 206.078125 82.046875 C 205.710938 82.199219 205.367188 82.382812 205.039062 82.601562 C 204.710938 82.820312 204.410156 83.070312 204.128906 83.347656 C 203.851562 83.628906 203.601562 83.929688 203.382812 84.257812 C 203.164062 84.585938 202.980469 84.929688 202.828125 85.296875 C 202.679688 85.660156 202.5625 86.035156 202.488281 86.421875 C 202.410156 86.808594 202.371094 87.195312 202.371094 87.589844 C 202.371094 87.984375 202.410156 88.375 202.488281 88.761719 C 202.5625 89.148438 202.679688 89.523438 202.828125 89.886719 C 202.980469 90.25 203.164062 90.597656 203.382812 90.925781 C 203.601562 91.253906 203.851562 91.554688 204.128906 91.832031 C 204.410156 92.113281 204.710938 92.359375 205.039062 92.578125 C 205.367188 92.796875 205.710938 92.984375 206.078125 93.132812 C 206.441406 93.285156 206.816406 93.398438 207.203125 93.476562 C 207.589844 93.550781 207.976562 93.589844 208.371094 93.589844 C 208.765625 93.589844 209.15625 93.550781 209.542969 93.476562 C 209.929688 93.398438 210.304688 93.285156 210.667969 93.132812 C 211.03125 92.984375 211.378906 92.796875 211.707031 92.578125 C 212.035156 92.359375 212.335938 92.113281 212.613281 91.832031 C 212.894531 91.554688 213.140625 91.253906 213.359375 90.925781 C 213.578125 90.597656 213.765625 90.25 213.914062 89.886719 C 214.066406 89.523438 214.179688 89.148438 214.257812 88.761719 C 214.332031 88.375 214.371094 87.984375 214.371094 87.589844 C 214.371094 87.195312 214.332031 86.808594 214.257812 86.421875 C 214.179688 86.035156 214.066406 85.660156 213.914062 85.296875 C 213.765625 84.929688 213.578125 84.585938 213.359375 84.257812 C 213.140625 83.929688 212.894531 83.628906 212.613281 83.347656 C 212.335938 83.070312 212.035156 82.820312 211.707031 82.601562 C 211.378906 82.382812 211.03125 82.199219 210.667969 82.046875 C 210.304688 81.898438 209.929688 81.785156 209.542969 81.707031 C 209.15625 81.628906 208.765625 81.589844 208.371094 81.589844 Z M 208.371094 81.589844 "/></g></svg>